<svg xmlns="http://www.w3.org/2000/svg" viewBox="0 0 1200 900">
  <defs>
    <pattern id="gridSmall2" width="10" height="10" patternUnits="userSpaceOnUse">
      <path d="M 10 0 L 0 0 0 10" fill="none" stroke="#1e3a5f" stroke-width="0.5"/>
    </pattern>
    <pattern id="gridLarge2" width="50" height="50" patternUnits="userSpaceOnUse">
      <rect width="50" height="50" fill="url(#gridSmall2)"/>
      <path d="M 50 0 L 0 0 0 50" fill="none" stroke="#2a4a6f" stroke-width="1"/>
    </pattern>
    <marker id="dimArrowL2" markerWidth="8" markerHeight="6" refX="0" refY="3" orient="auto">
      <polygon points="8 0, 8 6, 0 3" fill="#e2e8f0"/>
    </marker>
    <marker id="dimArrowR2" markerWidth="8" markerHeight="6" refX="8" refY="3" orient="auto">
      <polygon points="0 0, 0 6, 8 3" fill="#e2e8f0"/>
    </marker>
    <!-- Gradient for alpha visualization -->
    <linearGradient id="alphaGrad" x1="0%" y1="100%" x2="0%" y2="0%">
      <stop offset="0%" style="stop-color:#553c9a"/>
      <stop offset="30%" style="stop-color:#805ad5"/>
      <stop offset="70%" style="stop-color:#48bb78"/>
      <stop offset="100%" style="stop-color:#ed8936"/>
    </linearGradient>
  </defs>
  
  <!-- Background -->
  <rect width="1200" height="900" fill="#0a1628"/>
  <rect width="1200" height="900" fill="url(#gridLarge2)"/>
  
  <!-- Border frame -->
  <rect x="20" y="20" width="1160" height="860" fill="none" stroke="#4a6fa5" stroke-width="2"/>
  <rect x="25" y="25" width="1150" height="850" fill="none" stroke="#4a6fa5" stroke-width="1"/>
  
  <!-- Title block -->
  <rect x="850" y="780" width="320" height="90" fill="#0d2137" stroke="#4a6fa5" stroke-width="1"/>
  <line x1="850" y1="810" x2="1170" y2="810" stroke="#4a6fa5" stroke-width="1"/>
  <line x1="850" y1="840" x2="1170" y2="840" stroke="#4a6fa5" stroke-width="1"/>
  <line x1="1000" y1="810" x2="1000" y2="870" stroke="#4a6fa5" stroke-width="1"/>
  
  <text x="860" y="800" font-family="Courier New, monospace" font-size="12" fill="#e2e8f0">AETHERION MARK 1</text>
  <text x="860" y="828" font-family="Courier New, monospace" font-size="10" fill="#a0aec0">METAMATERIAL CORE DETAIL</text>
  <text x="860" y="858" font-family="Courier New, monospace" font-size="9" fill="#a0aec0">SCALE: 5:1</text>
  <text x="1010" y="828" font-family="Courier New, monospace" font-size="9" fill="#a0aec0">DWG: ATP-MK1-BP-002</text>
  <text x="1010" y="858" font-family="Courier New, monospace" font-size="9" fill="#a0aec0">REV: 1.0</text>
  
  <!-- Main title -->
  <text x="400" y="55" font-family="Courier New, monospace" font-size="16" fill="#f6ad55" text-anchor="middle">METAMATERIAL CORE - CROSS SECTION (SCALE 5:1)</text>
  
  <!-- ============== MAIN CORE SECTION VIEW ============== -->
  <g transform="translate(350, 420)">
    <!-- Center line -->
    <line x1="0" y1="-350" x2="0" y2="350" stroke="#f6ad55" stroke-width="0.5" stroke-dasharray="12,3,3,3"/>
    
    <!-- Outer boundary -->
    <rect x="-200" y="-320" width="400" height="640" fill="none" stroke="#e2e8f0" stroke-width="2"/>
    
    <!-- ===== ZONE 4: NOZZLE (Layers 22-24) ===== -->
    <!-- Nozzle cone geometry -->
    <path d="M-200,-320 L-200,-280 L-125,-240 L125,-240 L200,-280 L200,-320 Z" fill="none" stroke="#e2e8f0" stroke-width="1.5"/>
    
    <!-- Layer 24 (top) -->
    <rect x="-200" y="-320" width="400" height="25" fill="none" stroke="#ed8936" stroke-width="1"/>
    <text x="-190" y="-305" font-family="Courier New, monospace" font-size="8" fill="#ed8936">L24: α=2.50</text>
    
    <!-- Layer 23 -->
    <rect x="-190" y="-295" width="380" height="25" fill="none" stroke="#ed8936" stroke-width="1"/>
    <text x="-180" y="-280" font-family="Courier New, monospace" font-size="8" fill="#ed8936">L23: α=2.33</text>
    
    <!-- Layer 22 -->
    <rect x="-175" y="-270" width="350" height="25" fill="none" stroke="#ed8936" stroke-width="1"/>
    <text x="-165" y="-255" font-family="Courier New, monospace" font-size="8" fill="#ed8936">L22: α=2.17</text>
    
    <!-- Nozzle hatching -->
    <g stroke="#ed8936" stroke-width="0.3" opacity="0.5">
      <line x1="-180" y1="-320" x2="-140" y2="-280"/>
      <line x1="-150" y1="-320" x2="-110" y2="-280"/>
      <line x1="-120" y1="-320" x2="-80" y2="-280"/>
      <line x1="-90" y1="-320" x2="-50" y2="-280"/>
      <line x1="-60" y1="-320" x2="-20" y2="-280"/>
      <line x1="-30" y1="-320" x2="10" y2="-280"/>
      <line x1="0" y1="-320" x2="40" y2="-280"/>
      <line x1="30" y1="-320" x2="70" y2="-280"/>
      <line x1="60" y1="-320" x2="100" y2="-280"/>
      <line x1="90" y1="-320" x2="130" y2="-280"/>
      <line x1="120" y1="-320" x2="160" y2="-280"/>
      <line x1="150" y1="-320" x2="190" y2="-280"/>
    </g>
    
    <!-- Zone label -->
    <rect x="210" y="-310" width="120" height="50" fill="#0d2137" stroke="#ed8936" stroke-width="1"/>
    <text x="270" y="-290" font-family="Courier New, monospace" font-size="10" fill="#ed8936" text-anchor="middle">ZONE 4</text>
    <text x="270" y="-275" font-family="Courier New, monospace" font-size="8" fill="#a0aec0" text-anchor="middle">NOZZLE</text>
    <text x="270" y="-265" font-family="Courier New, monospace" font-size="7" fill="#a0aec0" text-anchor="middle">Al₂O₃-TiO₂</text>
    
    <!-- ===== ZONE 3: GRADIENT (Layers 7-21) ===== -->
    <!-- 15 gradient layers -->
    <g stroke="#48bb78" stroke-width="0.8">
      <!-- Layer 21 -->
      <line x1="-160" y1="-245" x2="160" y2="-245"/>
      <text x="-150" y="-238" font-family="Courier New, monospace" font-size="6" fill="#48bb78">L21: α=2.00 | ZrO₂:Al₂O₃ 20:80</text>
      
      <!-- Layer 20 -->
      <line x1="-160" y1="-225" x2="160" y2="-225"/>
      <text x="-150" y="-218" font-family="Courier New, monospace" font-size="6" fill="#48bb78">L20: α=1.90</text>
      
      <!-- Layer 19 -->
      <line x1="-160" y1="-205" x2="160" y2="-205"/>
      <text x="-150" y="-198" font-family="Courier New, monospace" font-size="6" fill="#48bb78">L19: α=1.80</text>
      
      <!-- Layer 18 -->
      <line x1="-160" y1="-185" x2="160" y2="-185"/>
      <text x="-150" y="-178" font-family="Courier New, monospace" font-size="6" fill="#48bb78">L18: α=1.70</text>
      
      <!-- Layer 17 -->
      <line x1="-160" y1="-165" x2="160" y2="-165"/>
      <text x="-150" y="-158" font-family="Courier New, monospace" font-size="6" fill="#48bb78">L17: α=1.60</text>
      
      <!-- Layer 16 -->
      <line x1="-160" y1="-145" x2="160" y2="-145"/>
      <text x="-150" y="-138" font-family="Courier New, monospace" font-size="6" fill="#48bb78">L16: α=1.50</text>
      
      <!-- Layer 15 -->
      <line x1="-160" y1="-125" x2="160" y2="-125"/>
      <text x="-150" y="-118" font-family="Courier New, monospace" font-size="6" fill="#48bb78">L15: α=1.40</text>
      
      <!-- Layer 14 -->
      <line x1="-160" y1="-105" x2="160" y2="-105"/>
      <text x="-150" y="-98" font-family="Courier New, monospace" font-size="6" fill="#48bb78">L14: α=1.30 | ZrO₂:Al₂O₃ 55:45</text>
      
      <!-- Layer 13 -->
      <line x1="-160" y1="-85" x2="160" y2="-85"/>
      <text x="-150" y="-78" font-family="Courier New, monospace" font-size="6" fill="#48bb78">L13: α=1.20</text>
      
      <!-- Layer 12 -->
      <line x1="-160" y1="-65" x2="160" y2="-65"/>
      <text x="-150" y="-58" font-family="Courier New, monospace" font-size="6" fill="#48bb78">L12: α=1.10</text>
      
      <!-- Layer 11 -->
      <line x1="-160" y1="-45" x2="160" y2="-45"/>
      <text x="-150" y="-38" font-family="Courier New, monospace" font-size="6" fill="#48bb78">L11: α=1.00</text>
      
      <!-- Layer 10 -->
      <line x1="-160" y1="-25" x2="160" y2="-25"/>
      <text x="-150" y="-18" font-family="Courier New, monospace" font-size="6" fill="#48bb78">L10: α=0.90</text>
      
      <!-- Layer 9 -->
      <line x1="-160" y1="-5" x2="160" y2="-5"/>
      <text x="-150" y="2" font-family="Courier New, monospace" font-size="6" fill="#48bb78">L09: α=0.80</text>
      
      <!-- Layer 8 -->
      <line x1="-160" y1="15" x2="160" y2="15"/>
      <text x="-150" y="22" font-family="Courier New, monospace" font-size="6" fill="#48bb78">L08: α=0.70</text>
      
      <!-- Layer 7 -->
      <line x1="-160" y1="35" x2="160" y2="35"/>
      <text x="-150" y="42" font-family="Courier New, monospace" font-size="6" fill="#48bb78">L07: α=0.60 | ZrO₂:Al₂O₃ 90:10</text>
    </g>
    
    <!-- Zone 3 boundary -->
    <rect x="-160" y="-245" width="320" height="300" fill="none" stroke="#48bb78" stroke-width="1.5"/>
    
    <!-- Zone label -->
    <rect x="210" y="-150" width="120" height="60" fill="#0d2137" stroke="#48bb78" stroke-width="1"/>
    <text x="270" y="-130" font-family="Courier New, monospace" font-size="10" fill="#48bb78" text-anchor="middle">ZONE 3</text>
    <text x="270" y="-115" font-family="Courier New, monospace" font-size="8" fill="#a0aec0" text-anchor="middle">GRADIENT</text>
    <text x="270" y="-105" font-family="Courier New, monospace" font-size="7" fill="#a0aec0" text-anchor="middle">15 layers</text>
    <text x="270" y="-95" font-family="Courier New, monospace" font-size="7" fill="#a0aec0" text-anchor="middle">∇α = 0.1/layer</text>
    
    <!-- ===== ZONE 2: ACCUMULATOR (Layers 2-6) ===== -->
    <rect x="-160" y="55" width="320" height="125" fill="none" stroke="#805ad5" stroke-width="1.5"/>
    
    <!-- Accumulator hatching -->
    <g stroke="#805ad5" stroke-width="0.3" opacity="0.6">
      <line x1="-160" y1="55" x2="-35" y2="180"/>
      <line x1="-130" y1="55" x2="-5" y2="180"/>
      <line x1="-100" y1="55" x2="25" y2="180"/>
      <line x1="-70" y1="55" x2="55" y2="180"/>
      <line x1="-40" y1="55" x2="85" y2="180"/>
      <line x1="-10" y1="55" x2="115" y2="180"/>
      <line x1="20" y1="55" x2="145" y2="180"/>
      <line x1="50" y1="55" x2="160" y2="165"/>
      <line x1="80" y1="55" x2="160" y2="135"/>
      <line x1="110" y1="55" x2="160" y2="105"/>
      <line x1="140" y1="55" x2="160" y2="75"/>
    </g>
    
    <!-- Layer labels -->
    <g stroke="#805ad5" stroke-width="0.5">
      <line x1="-160" y1="80" x2="160" y2="80"/>
      <line x1="-160" y1="105" x2="160" y2="105"/>
      <line x1="-160" y1="130" x2="160" y2="130"/>
      <line x1="-160" y1="155" x2="160" y2="155"/>
    </g>
    <text x="-150" y="72" font-family="Courier New, monospace" font-size="7" fill="#805ad5">L06: α=0.50 | ZrO₂-SiC 70:30</text>
    <text x="-150" y="97" font-family="Courier New, monospace" font-size="7" fill="#805ad5">L05: α=0.50</text>
    <text x="-150" y="122" font-family="Courier New, monospace" font-size="7" fill="#805ad5">L04: α=0.50</text>
    <text x="-150" y="147" font-family="Courier New, monospace" font-size="7" fill="#805ad5">L03: α=0.50</text>
    <text x="-150" y="172" font-family="Courier New, monospace" font-size="7" fill="#805ad5">L02: α=0.50</text>
    
    <!-- Zone label -->
    <rect x="210" y="70" width="120" height="60" fill="#0d2137" stroke="#805ad5" stroke-width="1"/>
    <text x="270" y="90" font-family="Courier New, monospace" font-size="10" fill="#805ad5" text-anchor="middle">ZONE 2</text>
    <text x="270" y="105" font-family="Courier New, monospace" font-size="8" fill="#a0aec0" text-anchor="middle">ACCUMULATOR</text>
    <text x="270" y="115" font-family="Courier New, monospace" font-size="7" fill="#a0aec0" text-anchor="middle">φ storage</text>
    <text x="270" y="125" font-family="Courier New, monospace" font-size="7" fill="#a0aec0" text-anchor="middle">5 layers</text>
    
    <!-- ===== ZONE 1: BASE (Layer 1) ===== -->
    <rect x="-160" y="180" width="320" height="50" fill="none" stroke="#3182ce" stroke-width="1.5"/>
    
    <!-- Base hatching (dense) -->
    <g stroke="#3182ce" stroke-width="0.3" opacity="0.6">
      <line x1="-160" y1="180" x2="-110" y2="230"/>
      <line x1="-140" y1="180" x2="-90" y2="230"/>
      <line x1="-120" y1="180" x2="-70" y2="230"/>
      <line x1="-100" y1="180" x2="-50" y2="230"/>
      <line x1="-80" y1="180" x2="-30" y2="230"/>
      <line x1="-60" y1="180" x2="-10" y2="230"/>
      <line x1="-40" y1="180" x2="10" y2="230"/>
      <line x1="-20" y1="180" x2="30" y2="230"/>
      <line x1="0" y1="180" x2="50" y2="230"/>
      <line x1="20" y1="180" x2="70" y2="230"/>
      <line x1="40" y1="180" x2="90" y2="230"/>
      <line x1="60" y1="180" x2="110" y2="230"/>
      <line x1="80" y1="180" x2="130" y2="230"/>
      <line x1="100" y1="180" x2="150" y2="230"/>
      <line x1="120" y1="180" x2="160" y2="220"/>
      <line x1="140" y1="180" x2="160" y2="200"/>
    </g>
    
    <text x="-150" y="210" font-family="Courier New, monospace" font-size="8" fill="#3182ce">L01: α=2.50 | Dense Al₂O₃ 100%</text>
    
    <!-- Zone label -->
    <rect x="210" y="180" width="120" height="50" fill="#0d2137" stroke="#3182ce" stroke-width="1"/>
    <text x="270" y="200" font-family="Courier New, monospace" font-size="10" fill="#3182ce" text-anchor="middle">ZONE 1</text>
    <text x="270" y="215" font-family="Courier New, monospace" font-size="8" fill="#a0aec0" text-anchor="middle">BASE REFLECTOR</text>
    <text x="270" y="225" font-family="Courier New, monospace" font-size="7" fill="#a0aec0" text-anchor="middle">Backflow block</text>
    
    <!-- ===== DIMENSIONS ===== -->
    <!-- Outer diameter 40mm -->
    <line x1="-160" y1="250" x2="-160" y2="270" stroke="#e2e8f0" stroke-width="0.5"/>
    <line x1="160" y1="250" x2="160" y2="270" stroke="#e2e8f0" stroke-width="0.5"/>
    <line x1="-160" y1="260" x2="160" y2="260" stroke="#e2e8f0" stroke-width="0.5" marker-start="url(#dimArrowL2)" marker-end="url(#dimArrowR2)"/>
    <text x="0" y="280" font-family="Courier New, monospace" font-size="10" fill="#e2e8f0" text-anchor="middle">Ø40.0 ±0.1</text>
    
    <!-- Nozzle aperture 25mm -->
    <line x1="-100" y1="-330" x2="-100" y2="-350" stroke="#e2e8f0" stroke-width="0.5"/>
    <line x1="100" y1="-330" x2="100" y2="-350" stroke="#e2e8f0" stroke-width="0.5"/>
    <line x1="-100" y1="-340" x2="100" y2="-340" stroke="#e2e8f0" stroke-width="0.5" marker-start="url(#dimArrowL2)" marker-end="url(#dimArrowR2)"/>
    <text x="0" y="-345" font-family="Courier New, monospace" font-size="10" fill="#e2e8f0" text-anchor="middle">Ø25.0 ±0.2</text>
    
    <!-- Zone heights -->
    <!-- Nozzle height -->
    <line x1="-220" y1="-320" x2="-240" y2="-320" stroke="#ed8936" stroke-width="0.5"/>
    <line x1="-220" y1="-245" x2="-240" y2="-245" stroke="#ed8936" stroke-width="0.5"/>
    <line x1="-235" y1="-320" x2="-235" y2="-245" stroke="#ed8936" stroke-width="0.5" marker-start="url(#dimArrowL2)" marker-end="url(#dimArrowR2)"/>
    <text x="-250" y="-280" font-family="Courier New, monospace" font-size="8" fill="#ed8936" transform="rotate(-90,-250,-280)">1.2</text>
    
    <!-- Gradient height -->
    <line x1="-220" y1="-245" x2="-240" y2="-245" stroke="#48bb78" stroke-width="0.5"/>
    <line x1="-220" y1="55" x2="-240" y2="55" stroke="#48bb78" stroke-width="0.5"/>
    <line x1="-235" y1="-245" x2="-235" y2="55" stroke="#48bb78" stroke-width="0.5" marker-start="url(#dimArrowL2)" marker-end="url(#dimArrowR2)"/>
    <text x="-250" y="-95" font-family="Courier New, monospace" font-size="8" fill="#48bb78" transform="rotate(-90,-250,-95)">4.5</text>
    
    <!-- Accumulator height -->
    <line x1="-220" y1="55" x2="-240" y2="55" stroke="#805ad5" stroke-width="0.5"/>
    <line x1="-220" y1="180" x2="-240" y2="180" stroke="#805ad5" stroke-width="0.5"/>
    <line x1="-235" y1="55" x2="-235" y2="180" stroke="#805ad5" stroke-width="0.5" marker-start="url(#dimArrowL2)" marker-end="url(#dimArrowR2)"/>
    <text x="-250" y="118" font-family="Courier New, monospace" font-size="8" fill="#805ad5" transform="rotate(-90,-250,118)">2.5</text>
    
    <!-- Base height -->
    <line x1="-220" y1="180" x2="-240" y2="180" stroke="#3182ce" stroke-width="0.5"/>
    <line x1="-220" y1="230" x2="-240" y2="230" stroke="#3182ce" stroke-width="0.5"/>
    <line x1="-235" y1="180" x2="-235" y2="230" stroke="#3182ce" stroke-width="0.5" marker-start="url(#dimArrowL2)" marker-end="url(#dimArrowR2)"/>
    <text x="-250" y="205" font-family="Courier New, monospace" font-size="8" fill="#3182ce" transform="rotate(-90,-250,205)">2.0</text>
    
    <!-- Total height -->
    <line x1="180" y1="-320" x2="200" y2="-320" stroke="#e2e8f0" stroke-width="0.5"/>
    <line x1="180" y1="230" x2="200" y2="230" stroke="#e2e8f0" stroke-width="0.5"/>
    <line x1="195" y1="-320" x2="195" y2="230" stroke="#e2e8f0" stroke-width="0.5" marker-start="url(#dimArrowL2)" marker-end="url(#dimArrowR2)"/>
    <text x="205" y="-40" font-family="Courier New, monospace" font-size="9" fill="#e2e8f0" transform="rotate(90,205,-40)">~10.2 TOTAL</text>
  </g>
  
  <!-- ============== ALPHA PROFILE GRAPH ============== -->
  <g transform="translate(900, 400)">
    <rect x="-120" y="-280" width="240" height="560" fill="#0d2137" stroke="#4a6fa5" stroke-width="1"/>
    
    <text x="0" y="-260" font-family="Courier New, monospace" font-size="12" fill="#f6ad55" text-anchor="middle">α GRADIENT PROFILE</text>
    
    <!-- Axes -->
    <line x1="-100" y1="-230" x2="-100" y2="250" stroke="#e2e8f0" stroke-width="1"/>
    <line x1="-100" y1="250" x2="100" y2="250" stroke="#e2e8f0" stroke-width="1"/>
    
    <!-- Y axis labels (position) -->
    <text x="-110" y="-220" font-family="Courier New, monospace" font-size="7" fill="#a0aec0" text-anchor="end">TOP</text>
    <text x="-110" y="245" font-family="Courier New, monospace" font-size="7" fill="#a0aec0" text-anchor="end">BASE</text>
    
    <!-- X axis labels (alpha) -->
    <text x="-100" y="265" font-family="Courier New, monospace" font-size="7" fill="#a0aec0" text-anchor="middle">0.5</text>
    <text x="0" y="265" font-family="Courier New, monospace" font-size="7" fill="#a0aec0" text-anchor="middle">1.5</text>
    <text x="100" y="265" font-family="Courier New, monospace" font-size="7" fill="#a0aec0" text-anchor="middle">2.5</text>
    <text x="0" y="280" font-family="Courier New, monospace" font-size="8" fill="#e2e8f0" text-anchor="middle">α value</text>
    
    <!-- Grid lines -->
    <g stroke="#2a4a6f" stroke-width="0.5">
      <line x1="-50" y1="-230" x2="-50" y2="250"/>
      <line x1="0" y1="-230" x2="0" y2="250"/>
      <line x1="50" y1="-230" x2="50" y2="250"/>
      <line x1="100" y1="-230" x2="100" y2="250"/>
    </g>
    
    <!-- Alpha profile curve -->
    <path d="M100,-220 
             L100,-200 
             L80,-180 
             L60,-160
             L100,200
             L-100,200
             L-100,230
             L100,230
             L100,250" 
          fill="none" stroke="#48bb78" stroke-width="2"/>
    
    <!-- Zone boundaries on graph -->
    <!-- Nozzle -->
    <rect x="-100" y="-230" width="200" height="30" fill="#ed8936" opacity="0.2"/>
    <text x="95" y="-210" font-family="Courier New, monospace" font-size="7" fill="#ed8936" text-anchor="end">NOZZLE</text>
    
    <!-- Gradient -->
    <rect x="-100" y="-200" width="200" height="300" fill="#48bb78" opacity="0.1"/>
    <text x="95" y="-50" font-family="Courier New, monospace" font-size="7" fill="#48bb78" text-anchor="end">GRADIENT</text>
    
    <!-- Accumulator -->
    <rect x="-100" y="100" width="200" height="100" fill="#805ad5" opacity="0.2"/>
    <text x="95" y="150" font-family="Courier New, monospace" font-size="7" fill="#805ad5" text-anchor="end">ACCUM</text>
    
    <!-- Base -->
    <rect x="-100" y="200" width="200" height="50" fill="#3182ce" opacity="0.2"/>
    <text x="95" y="225" font-family="Courier New, monospace" font-size="7" fill="#3182ce" text-anchor="end">BASE</text>
    
    <!-- Key equation -->
    <text x="0" y="-245" font-family="Courier New, monospace" font-size="8" fill="#a0aec0" text-anchor="middle">∇α ≈ 200 m⁻¹</text>
  </g>
  
  <!-- ============== MATERIAL TABLE ============== -->
  <g transform="translate(900, 750)">
    <rect x="-180" y="-80" width="360" height="80" fill="#0d2137" stroke="#4a6fa5" stroke-width="1"/>
    
    <text x="0" y="-60" font-family="Courier New, monospace" font-size="10" fill="#f6ad55" text-anchor="middle">MATERIAL SUMMARY</text>
    
    <line x1="-170" y1="-50" x2="170" y2="-50" stroke="#4a6fa5" stroke-width="0.5"/>
    
    <text x="-160" y="-35" font-family="Courier New, monospace" font-size="8" fill="#ed8936">NOZZLE:</text>
    <text x="-80" y="-35" font-family="Courier New, monospace" font-size="7" fill="#a0aec0">Al₂O₃-TiO₂ (graded 75:25 → 25:75)</text>
    
    <text x="-160" y="-20" font-family="Courier New, monospace" font-size="8" fill="#48bb78">GRADIENT:</text>
    <text x="-80" y="-20" font-family="Courier New, monospace" font-size="7" fill="#a0aec0">ZrO₂-Al₂O₃ (graded 90:10 → 20:80)</text>
    
    <text x="-160" y="-5" font-family="Courier New, monospace" font-size="8" fill="#805ad5">ACCUM:</text>
    <text x="-80" y="-5" font-family="Courier New, monospace" font-size="7" fill="#a0aec0">ZrO₂-SiC (70:30 constant)</text>
    
    <text x="-160" y="10" font-family="Courier New, monospace" font-size="8" fill="#3182ce">BASE:</text>
    <text x="-80" y="10" font-family="Courier New, monospace" font-size="7" fill="#a0aec0">Dense Al₂O₃ (100%)</text>
  </g>
  
  <!-- Notes -->
  <rect x="40" y="700" width="280" height="90" fill="#0d2137" stroke="#4a6fa5" stroke-width="1"/>
  <text x="50" y="720" font-family="Courier New, monospace" font-size="10" fill="#f6ad55">NOTES:</text>
  <text x="50" y="738" font-family="Courier New, monospace" font-size="8" fill="#a0aec0">1. ALL DIMENSIONS IN MM</text>
  <text x="50" y="753" font-family="Courier New, monospace" font-size="8" fill="#a0aec0">2. α VERIFIED BY ε MEASUREMENT</text>
  <text x="50" y="768" font-family="Courier New, monospace" font-size="8" fill="#a0aec0">3. SEE ATP-MK1-MTL-001 FOR</text>
  <text x="50" y="783" font-family="Courier New, monospace" font-size="8" fill="#a0aec0">   COMPLETE FABRICATION SPEC</text>
</svg>
