<svg xmlns="http://www.w3.org/2000/svg" viewBox="0 0 1200 900">
  <defs>
    <pattern id="gridSmall4" width="10" height="10" patternUnits="userSpaceOnUse">
      <path d="M 10 0 L 0 0 0 10" fill="none" stroke="#1e3a5f" stroke-width="0.5"/>
    </pattern>
    <pattern id="gridLarge4" width="50" height="50" patternUnits="userSpaceOnUse">
      <rect width="50" height="50" fill="url(#gridSmall4)"/>
      <path d="M 50 0 L 0 0 0 50" fill="none" stroke="#2a4a6f" stroke-width="1"/>
    </pattern>
    <marker id="assemblyArrow" markerWidth="10" markerHeight="7" refX="0" refY="3.5" orient="auto">
      <polygon points="0 0, 10 3.5, 0 7" fill="#48bb78"/>
    </marker>
  </defs>
  
  <!-- Background -->
  <rect width="1200" height="900" fill="#0a1628"/>
  <rect width="1200" height="900" fill="url(#gridLarge4)"/>
  
  <!-- Border frame -->
  <rect x="20" y="20" width="1160" height="860" fill="none" stroke="#4a6fa5" stroke-width="2"/>
  <rect x="25" y="25" width="1150" height="850" fill="none" stroke="#4a6fa5" stroke-width="1"/>
  
  <!-- Title block -->
  <rect x="850" y="780" width="320" height="90" fill="#0d2137" stroke="#4a6fa5" stroke-width="1"/>
  <line x1="850" y1="810" x2="1170" y2="810" stroke="#4a6fa5" stroke-width="1"/>
  <line x1="850" y1="840" x2="1170" y2="840" stroke="#4a6fa5" stroke-width="1"/>
  <line x1="1000" y1="810" x2="1000" y2="870" stroke="#4a6fa5" stroke-width="1"/>
  
  <text x="860" y="800" font-family="Courier New, monospace" font-size="12" fill="#e2e8f0">AETHERION MARK 1</text>
  <text x="860" y="828" font-family="Courier New, monospace" font-size="10" fill="#a0aec0">EXPLODED ASSEMBLY VIEW</text>
  <text x="860" y="858" font-family="Courier New, monospace" font-size="9" fill="#a0aec0">SCALE: NTS</text>
  <text x="1010" y="828" font-family="Courier New, monospace" font-size="9" fill="#a0aec0">DWG: ATP-MK1-BP-004</text>
  <text x="1010" y="858" font-family="Courier New, monospace" font-size="9" fill="#a0aec0">REV: 1.0</text>
  
  <!-- Main title -->
  <text x="450" y="55" font-family="Courier New, monospace" font-size="16" fill="#f6ad55" text-anchor="middle">EXPLODED ASSEMBLY - ALL COMPONENTS</text>
  
  <!-- ============== EXPLODED VIEW ============== -->
  <g transform="translate(450, 450)">
    
    <!-- Assembly axis line -->
    <line x1="0" y1="-380" x2="0" y2="350" stroke="#48bb78" stroke-width="1" stroke-dasharray="10,5"/>
    
    <!-- ===== ITEM 1: TOP COVER (with heatsink) ===== -->
    <g transform="translate(0, -340)">
      <!-- Heatsink fins -->
      <g fill="none" stroke="#718096" stroke-width="1">
        <rect x="-70" y="-30" width="10" height="25"/>
        <rect x="-55" y="-30" width="10" height="25"/>
        <rect x="-40" y="-30" width="10" height="25"/>
        <rect x="-25" y="-30" width="10" height="25"/>
        <rect x="-10" y="-30" width="10" height="25"/>
        <rect x="5" y="-30" width="10" height="25"/>
        <rect x="20" y="-30" width="10" height="25"/>
        <rect x="35" y="-30" width="10" height="25"/>
        <rect x="50" y="-30" width="10" height="25"/>
        <rect x="65" y="-30" width="10" height="25"/>
      </g>
      <!-- Base plate -->
      <rect x="-80" y="-5" width="160" height="20" fill="none" stroke="#e2e8f0" stroke-width="1.5"/>
      <!-- Nozzle aperture -->
      <ellipse cx="0" cy="5" rx="35" ry="8" fill="none" stroke="#a0aec0" stroke-width="1"/>
      
      <!-- Item balloon -->
      <circle cx="120" cy="-15" r="15" fill="#0d2137" stroke="#f6ad55" stroke-width="1"/>
      <text x="120" y="-10" font-family="Courier New, monospace" font-size="12" fill="#f6ad55" text-anchor="middle">1</text>
      <line x1="85" y1="-5" x2="105" y2="-15" stroke="#f6ad55" stroke-width="0.5"/>
    </g>
    
    <!-- Assembly arrow 1→2 -->
    <line x1="0" y1="-310" x2="0" y2="-280" stroke="#48bb78" stroke-width="2" marker-end="url(#assemblyArrow)"/>
    
    <!-- ===== ITEM 2: NOZZLE CONE ===== -->
    <g transform="translate(0, -250)">
      <path d="M-60,-20 L-35,20 L35,20 L60,-20 Z" fill="none" stroke="#ed8936" stroke-width="1.5"/>
      <ellipse cx="0" cy="20" rx="35" ry="8" fill="none" stroke="#ed8936" stroke-width="1"/>
      <ellipse cx="0" cy="-20" rx="60" ry="12" fill="none" stroke="#ed8936" stroke-width="1"/>
      
      <!-- Item balloon -->
      <circle cx="120" cy="0" r="15" fill="#0d2137" stroke="#f6ad55" stroke-width="1"/>
      <text x="120" y="5" font-family="Courier New, monospace" font-size="12" fill="#f6ad55" text-anchor="middle">2</text>
      <line x1="65" y1="0" x2="105" y2="0" stroke="#f6ad55" stroke-width="0.5"/>
    </g>
    
    <!-- Assembly arrow 2→3 -->
    <line x1="0" y1="-215" x2="0" y2="-185" stroke="#48bb78" stroke-width="2" marker-end="url(#assemblyArrow)"/>
    
    <!-- ===== ITEM 3: GRADIENT STACK ===== -->
    <g transform="translate(0, -150)">
      <rect x="-55" y="-30" width="110" height="60" fill="none" stroke="#48bb78" stroke-width="1.5"/>
      <!-- Layer lines -->
      <g stroke="#48bb78" stroke-width="0.5">
        <line x1="-50" y1="-26" x2="50" y2="-26"/>
        <line x1="-50" y1="-22" x2="50" y2="-22"/>
        <line x1="-50" y1="-18" x2="50" y2="-18"/>
        <line x1="-50" y1="-14" x2="50" y2="-14"/>
        <line x1="-50" y1="-10" x2="50" y2="-10"/>
        <line x1="-50" y1="-6" x2="50" y2="-6"/>
        <line x1="-50" y1="-2" x2="50" y2="-2"/>
        <line x1="-50" y1="2" x2="50" y2="2"/>
        <line x1="-50" y1="6" x2="50" y2="6"/>
        <line x1="-50" y1="10" x2="50" y2="10"/>
        <line x1="-50" y1="14" x2="50" y2="14"/>
        <line x1="-50" y1="18" x2="50" y2="18"/>
        <line x1="-50" y1="22" x2="50" y2="22"/>
        <line x1="-50" y1="26" x2="50" y2="26"/>
      </g>
      
      <!-- Item balloon -->
      <circle cx="120" cy="0" r="15" fill="#0d2137" stroke="#f6ad55" stroke-width="1"/>
      <text x="120" y="5" font-family="Courier New, monospace" font-size="12" fill="#f6ad55" text-anchor="middle">3</text>
      <line x1="60" y1="0" x2="105" y2="0" stroke="#f6ad55" stroke-width="0.5"/>
    </g>
    
    <!-- Assembly arrow 3→4 -->
    <line x1="0" y1="-85" x2="0" y2="-55" stroke="#48bb78" stroke-width="2" marker-end="url(#assemblyArrow)"/>
    
    <!-- ===== ITEM 4: ACCUMULATOR ===== -->
    <g transform="translate(0, -25)">
      <rect x="-55" y="-25" width="110" height="50" fill="none" stroke="#805ad5" stroke-width="1.5"/>
      <!-- Hatching -->
      <g stroke="#805ad5" stroke-width="0.3">
        <line x1="-55" y1="-25" x2="-5" y2="25"/>
        <line x1="-40" y1="-25" x2="10" y2="25"/>
        <line x1="-25" y1="-25" x2="25" y2="25"/>
        <line x1="-10" y1="-25" x2="40" y2="25"/>
        <line x1="5" y1="-25" x2="55" y2="25"/>
        <line x1="20" y1="-25" x2="55" y2="10"/>
        <line x1="35" y1="-25" x2="55" y2="-5"/>
      </g>
      
      <!-- Item balloon -->
      <circle cx="120" cy="0" r="15" fill="#0d2137" stroke="#f6ad55" stroke-width="1"/>
      <text x="120" y="5" font-family="Courier New, monospace" font-size="12" fill="#f6ad55" text-anchor="middle">4</text>
      <line x1="60" y1="0" x2="105" y2="0" stroke="#f6ad55" stroke-width="0.5"/>
    </g>
    
    <!-- Assembly arrow 4→5 -->
    <line x1="0" y1="30" x2="0" y2="55" stroke="#48bb78" stroke-width="2" marker-end="url(#assemblyArrow)"/>
    
    <!-- ===== ITEM 5: PIEZO RING ===== -->
    <g transform="translate(0, 85)">
      <!-- Ring -->
      <ellipse cx="0" cy="0" rx="70" ry="18" fill="none" stroke="#e2e8f0" stroke-width="1.5"/>
      <ellipse cx="0" cy="0" rx="50" ry="12" fill="none" stroke="#e2e8f0" stroke-width="1"/>
      <!-- Piezo elements -->
      <g fill="none" stroke="#ecc94b" stroke-width="1.5">
        <rect x="52" y="-8" width="15" height="16" transform="rotate(0, 60, 0)"/>
        <rect x="52" y="-8" width="15" height="16" transform="rotate(45, 0, 0)"/>
        <rect x="52" y="-8" width="15" height="16" transform="rotate(90, 0, 0)"/>
        <rect x="52" y="-8" width="15" height="16" transform="rotate(135, 0, 0)"/>
        <rect x="52" y="-8" width="15" height="16" transform="rotate(180, 0, 0)"/>
        <rect x="52" y="-8" width="15" height="16" transform="rotate(225, 0, 0)"/>
        <rect x="52" y="-8" width="15" height="16" transform="rotate(270, 0, 0)"/>
        <rect x="52" y="-8" width="15" height="16" transform="rotate(315, 0, 0)"/>
      </g>
      
      <!-- Item balloon -->
      <circle cx="120" cy="0" r="15" fill="#0d2137" stroke="#f6ad55" stroke-width="1"/>
      <text x="120" y="5" font-family="Courier New, monospace" font-size="12" fill="#f6ad55" text-anchor="middle">5</text>
      <line x1="75" y1="0" x2="105" y2="0" stroke="#f6ad55" stroke-width="0.5"/>
    </g>
    
    <!-- Assembly arrow 5→6 -->
    <line x1="0" y1="110" x2="0" y2="135" stroke="#48bb78" stroke-width="2" marker-end="url(#assemblyArrow)"/>
    
    <!-- ===== ITEM 6: BASE REFLECTOR ===== -->
    <g transform="translate(0, 160)">
      <rect x="-55" y="-15" width="110" height="30" fill="none" stroke="#3182ce" stroke-width="1.5"/>
      <!-- Hatching (dense) -->
      <g stroke="#3182ce" stroke-width="0.3">
        <line x1="-55" y1="-15" x2="-25" y2="15"/>
        <line x1="-45" y1="-15" x2="-15" y2="15"/>
        <line x1="-35" y1="-15" x2="-5" y2="15"/>
        <line x1="-25" y1="-15" x2="5" y2="15"/>
        <line x1="-15" y1="-15" x2="15" y2="15"/>
        <line x1="-5" y1="-15" x2="25" y2="15"/>
        <line x1="5" y1="-15" x2="35" y2="15"/>
        <line x1="15" y1="-15" x2="45" y2="15"/>
        <line x1="25" y1="-15" x2="55" y2="15"/>
        <line x1="35" y1="-15" x2="55" y2="5"/>
        <line x1="45" y1="-15" x2="55" y2="-5"/>
      </g>
      
      <!-- Item balloon -->
      <circle cx="120" cy="0" r="15" fill="#0d2137" stroke="#f6ad55" stroke-width="1"/>
      <text x="120" y="5" font-family="Courier New, monospace" font-size="12" fill="#f6ad55" text-anchor="middle">6</text>
      <line x1="60" y1="0" x2="105" y2="0" stroke="#f6ad55" stroke-width="0.5"/>
    </g>
    
    <!-- Assembly arrow 6→7 -->
    <line x1="0" y1="190" x2="0" y2="215" stroke="#48bb78" stroke-width="2" marker-end="url(#assemblyArrow)"/>
    
    <!-- ===== ITEM 7: ELECTRONICS BAY ===== -->
    <g transform="translate(0, 250)">
      <rect x="-75" y="-25" width="150" height="50" fill="none" stroke="#e2e8f0" stroke-width="1.5"/>
      <!-- PCB -->
      <rect x="-65" y="-18" width="50" height="35" fill="none" stroke="#48bb78" stroke-width="1"/>
      <text x="-40" y="2" font-family="Courier New, monospace" font-size="7" fill="#48bb78" text-anchor="middle">MCU</text>
      <!-- DDS -->
      <rect x="-5" y="-18" width="35" height="20" fill="none" stroke="#4299e1" stroke-width="1"/>
      <text x="12" y="-5" font-family="Courier New, monospace" font-size="6" fill="#4299e1" text-anchor="middle">DDS</text>
      <!-- HV Section -->
      <rect x="35" y="-18" width="30" height="35" fill="none" stroke="#ed8936" stroke-width="1"/>
      <text x="50" y="2" font-family="Courier New, monospace" font-size="6" fill="#ed8936" text-anchor="middle">HV</text>
      
      <!-- Item balloon -->
      <circle cx="120" cy="0" r="15" fill="#0d2137" stroke="#f6ad55" stroke-width="1"/>
      <text x="120" y="5" font-family="Courier New, monospace" font-size="12" fill="#f6ad55" text-anchor="middle">7</text>
      <line x1="80" y1="0" x2="105" y2="0" stroke="#f6ad55" stroke-width="0.5"/>
    </g>
    
    <!-- Assembly arrow 7→8 -->
    <line x1="0" y1="280" x2="0" y2="305" stroke="#48bb78" stroke-width="2" marker-end="url(#assemblyArrow)"/>
    
    <!-- ===== ITEM 8: MOUNTING FLANGE ===== -->
    <g transform="translate(0, 335)">
      <rect x="-95" y="-15" width="190" height="30" fill="none" stroke="#e2e8f0" stroke-width="1.5"/>
      <!-- Mounting holes -->
      <circle cx="-70" cy="0" r="8" fill="none" stroke="#e2e8f0" stroke-width="1"/>
      <circle cx="0" cy="0" r="8" fill="none" stroke="#e2e8f0" stroke-width="1"/>
      <circle cx="70" cy="0" r="8" fill="none" stroke="#e2e8f0" stroke-width="1"/>
      
      <!-- Item balloon -->
      <circle cx="120" cy="0" r="15" fill="#0d2137" stroke="#f6ad55" stroke-width="1"/>
      <text x="120" y="5" font-family="Courier New, monospace" font-size="12" fill="#f6ad55" text-anchor="middle">8</text>
      <line x1="100" y1="0" x2="105" y2="0" stroke="#f6ad55" stroke-width="0.5"/>
    </g>
  </g>
  
  <!-- ============== PARTS LIST ============== -->
  <g transform="translate(900, 100)">
    <rect x="-180" y="0" width="360" height="380" fill="#0d2137" stroke="#4a6fa5" stroke-width="1"/>
    
    <text x="0" y="25" font-family="Courier New, monospace" font-size="14" fill="#f6ad55" text-anchor="middle">PARTS LIST</text>
    
    <line x1="-170" y1="40" x2="170" y2="40" stroke="#4a6fa5" stroke-width="1"/>
    
    <!-- Header -->
    <text x="-160" y="58" font-family="Courier New, monospace" font-size="9" fill="#a0aec0">ITEM</text>
    <text x="-120" y="58" font-family="Courier New, monospace" font-size="9" fill="#a0aec0">PART NAME</text>
    <text x="40" y="58" font-family="Courier New, monospace" font-size="9" fill="#a0aec0">MATERIAL</text>
    <text x="130" y="58" font-family="Courier New, monospace" font-size="9" fill="#a0aec0">QTY</text>
    
    <line x1="-170" y1="68" x2="170" y2="68" stroke="#4a6fa5" stroke-width="0.5"/>
    
    <!-- Item 1 -->
    <text x="-155" y="88" font-family="Courier New, monospace" font-size="10" fill="#f6ad55">1</text>
    <text x="-120" y="88" font-family="Courier New, monospace" font-size="9" fill="#e2e8f0">TOP COVER</text>
    <text x="40" y="88" font-family="Courier New, monospace" font-size="8" fill="#718096">Al 6061-T6</text>
    <text x="140" y="88" font-family="Courier New, monospace" font-size="9" fill="#e2e8f0">1</text>
    <text x="-120" y="100" font-family="Courier New, monospace" font-size="7" fill="#a0aec0">(w/ heatsink fins)</text>
    
    <!-- Item 2 -->
    <text x="-155" y="120" font-family="Courier New, monospace" font-size="10" fill="#f6ad55">2</text>
    <text x="-120" y="120" font-family="Courier New, monospace" font-size="9" fill="#ed8936">NOZZLE CONE</text>
    <text x="40" y="120" font-family="Courier New, monospace" font-size="8" fill="#718096">Al₂O₃-TiO₂</text>
    <text x="140" y="120" font-family="Courier New, monospace" font-size="9" fill="#e2e8f0">1</text>
    <text x="-120" y="132" font-family="Courier New, monospace" font-size="7" fill="#a0aec0">(3 layers, α=2.0→2.5)</text>
    
    <!-- Item 3 -->
    <text x="-155" y="152" font-family="Courier New, monospace" font-size="10" fill="#f6ad55">3</text>
    <text x="-120" y="152" font-family="Courier New, monospace" font-size="9" fill="#48bb78">GRADIENT STACK</text>
    <text x="40" y="152" font-family="Courier New, monospace" font-size="8" fill="#718096">ZrO₂-Al₂O₃</text>
    <text x="140" y="152" font-family="Courier New, monospace" font-size="9" fill="#e2e8f0">1</text>
    <text x="-120" y="164" font-family="Courier New, monospace" font-size="7" fill="#a0aec0">(15 layers, α=0.6→2.0)</text>
    
    <!-- Item 4 -->
    <text x="-155" y="184" font-family="Courier New, monospace" font-size="10" fill="#f6ad55">4</text>
    <text x="-120" y="184" font-family="Courier New, monospace" font-size="9" fill="#805ad5">ACCUMULATOR</text>
    <text x="40" y="184" font-family="Courier New, monospace" font-size="8" fill="#718096">ZrO₂-SiC</text>
    <text x="140" y="184" font-family="Courier New, monospace" font-size="9" fill="#e2e8f0">1</text>
    <text x="-120" y="196" font-family="Courier New, monospace" font-size="7" fill="#a0aec0">(5 layers, α=0.5)</text>
    
    <!-- Item 5 -->
    <text x="-155" y="216" font-family="Courier New, monospace" font-size="10" fill="#f6ad55">5</text>
    <text x="-120" y="216" font-family="Courier New, monospace" font-size="9" fill="#ecc94b">PIEZO RING ASSY</text>
    <text x="40" y="216" font-family="Courier New, monospace" font-size="8" fill="#718096">PZT-5H</text>
    <text x="140" y="216" font-family="Courier New, monospace" font-size="9" fill="#e2e8f0">1</text>
    <text x="-120" y="228" font-family="Courier New, monospace" font-size="7" fill="#a0aec0">(8× actuators on ring)</text>
    
    <!-- Item 6 -->
    <text x="-155" y="248" font-family="Courier New, monospace" font-size="10" fill="#f6ad55">6</text>
    <text x="-120" y="248" font-family="Courier New, monospace" font-size="9" fill="#3182ce">BASE REFLECTOR</text>
    <text x="40" y="248" font-family="Courier New, monospace" font-size="8" fill="#718096">Dense Al₂O₃</text>
    <text x="140" y="248" font-family="Courier New, monospace" font-size="9" fill="#e2e8f0">1</text>
    <text x="-120" y="260" font-family="Courier New, monospace" font-size="7" fill="#a0aec0">(1 layer, α=2.5)</text>
    
    <!-- Item 7 -->
    <text x="-155" y="280" font-family="Courier New, monospace" font-size="10" fill="#f6ad55">7</text>
    <text x="-120" y="280" font-family="Courier New, monospace" font-size="9" fill="#e2e8f0">ELECTRONICS BAY</text>
    <text x="40" y="280" font-family="Courier New, monospace" font-size="8" fill="#718096">PCB + ICs</text>
    <text x="140" y="280" font-family="Courier New, monospace" font-size="9" fill="#e2e8f0">1</text>
    <text x="-120" y="292" font-family="Courier New, monospace" font-size="7" fill="#a0aec0">(MCU, DDS, HV amps)</text>
    
    <!-- Item 8 -->
    <text x="-155" y="312" font-family="Courier New, monospace" font-size="10" fill="#f6ad55">8</text>
    <text x="-120" y="312" font-family="Courier New, monospace" font-size="9" fill="#e2e8f0">MOUNTING FLANGE</text>
    <text x="40" y="312" font-family="Courier New, monospace" font-size="8" fill="#718096">Al 6061-T6</text>
    <text x="140" y="312" font-family="Courier New, monospace" font-size="9" fill="#e2e8f0">1</text>
    <text x="-120" y="324" font-family="Courier New, monospace" font-size="7" fill="#a0aec0">(3× M4 mounting holes)</text>
    
    <line x1="-170" y1="338" x2="170" y2="338" stroke="#4a6fa5" stroke-width="0.5"/>
    
    <!-- Fasteners -->
    <text x="-160" y="358" font-family="Courier New, monospace" font-size="9" fill="#a0aec0">FASTENERS:</text>
    <text x="-60" y="358" font-family="Courier New, monospace" font-size="8" fill="#718096">M2×8 SHCS (24), M3×12 SHCS (16), M4×16 (3)</text>
  </g>
  
  <!-- ============== ASSEMBLY SEQUENCE ============== -->
  <g transform="translate(900, 520)">
    <rect x="-180" y="0" width="360" height="150" fill="#0d2137" stroke="#4a6fa5" stroke-width="1"/>
    
    <text x="0" y="25" font-family="Courier New, monospace" font-size="12" fill="#f6ad55" text-anchor="middle">ASSEMBLY SEQUENCE</text>
    
    <line x1="-170" y1="35" x2="170" y2="35" stroke="#4a6fa5" stroke-width="0.5"/>
    
    <text x="-160" y="55" font-family="Courier New, monospace" font-size="9" fill="#e2e8f0">1. Install MOUNTING FLANGE (8)</text>
    <text x="-160" y="70" font-family="Courier New, monospace" font-size="9" fill="#e2e8f0">2. Install ELECTRONICS BAY (7)</text>
    <text x="-160" y="85" font-family="Courier New, monospace" font-size="9" fill="#e2e8f0">3. Install BASE REFLECTOR (6)</text>
    <text x="-160" y="100" font-family="Courier New, monospace" font-size="9" fill="#e2e8f0">4. Install PIEZO RING ASSY (5)</text>
    <text x="-160" y="115" font-family="Courier New, monospace" font-size="9" fill="#e2e8f0">5. Stack ACCUMULATOR (4) + GRADIENT (3)</text>
    <text x="-160" y="130" font-family="Courier New, monospace" font-size="9" fill="#e2e8f0">6. Install NOZZLE CONE (2)</text>
    <text x="-160" y="145" font-family="Courier New, monospace" font-size="9" fill="#e2e8f0">7. Install TOP COVER (1) with TIM</text>
  </g>
  
  <!-- Notes -->
  <rect x="40" y="760" width="400" height="80" fill="#0d2137" stroke="#4a6fa5" stroke-width="1"/>
  <text x="50" y="780" font-family="Courier New, monospace" font-size="10" fill="#f6ad55">NOTES:</text>
  <text x="50" y="798" font-family="Courier New, monospace" font-size="8" fill="#a0aec0">1. APPLY THERMAL INTERFACE MATERIAL BETWEEN (1) AND (5)</text>
  <text x="50" y="813" font-family="Courier New, monospace" font-size="8" fill="#a0aec0">2. CORE ASSEMBLY (2-4-3-6) IS PRE-BONDED UNIT</text>
  <text x="50" y="828" font-family="Courier New, monospace" font-size="8" fill="#a0aec0">3. VERIFY PIEZO WIRING BEFORE FINAL CLOSURE</text>
</svg>
