<svg xmlns="http://www.w3.org/2000/svg" viewBox="0 0 1200 900">
  <defs>
    <!-- Blueprint grid pattern -->
    <pattern id="gridSmall" width="10" height="10" patternUnits="userSpaceOnUse">
      <path d="M 10 0 L 0 0 0 10" fill="none" stroke="#1e3a5f" stroke-width="0.5"/>
    </pattern>
    <pattern id="gridLarge" width="50" height="50" patternUnits="userSpaceOnUse">
      <rect width="50" height="50" fill="url(#gridSmall)"/>
      <path d="M 50 0 L 0 0 0 50" fill="none" stroke="#2a4a6f" stroke-width="1"/>
    </pattern>
    <!-- Dimension arrow markers -->
    <marker id="dimArrowL" markerWidth="8" markerHeight="6" refX="0" refY="3" orient="auto">
      <polygon points="8 0, 8 6, 0 3" fill="#e2e8f0"/>
    </marker>
    <marker id="dimArrowR" markerWidth="8" markerHeight="6" refX="8" refY="3" orient="auto">
      <polygon points="0 0, 0 6, 8 3" fill="#e2e8f0"/>
    </marker>
    <!-- Center line pattern -->
    <pattern id="centerLine" patternUnits="userSpaceOnUse" width="20" height="1">
      <line x1="0" y1="0" x2="12" y2="0" stroke="#f6ad55" stroke-width="0.5"/>
      <line x1="14" y1="0" x2="18" y2="0" stroke="#f6ad55" stroke-width="0.5"/>
    </pattern>
  </defs>
  
  <!-- Background -->
  <rect width="1200" height="900" fill="#0a1628"/>
  <rect width="1200" height="900" fill="url(#gridLarge)"/>
  
  <!-- Border frame -->
  <rect x="20" y="20" width="1160" height="860" fill="none" stroke="#4a6fa5" stroke-width="2"/>
  <rect x="25" y="25" width="1150" height="850" fill="none" stroke="#4a6fa5" stroke-width="1"/>
  
  <!-- Title block -->
  <rect x="850" y="780" width="320" height="90" fill="#0d2137" stroke="#4a6fa5" stroke-width="1"/>
  <line x1="850" y1="810" x2="1170" y2="810" stroke="#4a6fa5" stroke-width="1"/>
  <line x1="850" y1="840" x2="1170" y2="840" stroke="#4a6fa5" stroke-width="1"/>
  <line x1="1000" y1="810" x2="1000" y2="870" stroke="#4a6fa5" stroke-width="1"/>
  
  <text x="860" y="800" font-family="Courier New, monospace" font-size="12" fill="#e2e8f0">AETHERION MARK 1</text>
  <text x="860" y="828" font-family="Courier New, monospace" font-size="10" fill="#a0aec0">ORTHOGRAPHIC VIEWS</text>
  <text x="860" y="858" font-family="Courier New, monospace" font-size="9" fill="#a0aec0">SCALE: 2:1</text>
  <text x="1010" y="828" font-family="Courier New, monospace" font-size="9" fill="#a0aec0">DWG: ATP-MK1-BP-001</text>
  <text x="1010" y="858" font-family="Courier New, monospace" font-size="9" fill="#a0aec0">REV: 1.0</text>
  
  <!-- View labels -->
  <text x="200" y="60" font-family="Courier New, monospace" font-size="14" fill="#f6ad55" text-anchor="middle">FRONT VIEW</text>
  <text x="550" y="60" font-family="Courier New, monospace" font-size="14" fill="#f6ad55" text-anchor="middle">SIDE VIEW</text>
  <text x="900" y="60" font-family="Courier New, monospace" font-size="14" fill="#f6ad55" text-anchor="middle">TOP VIEW</text>
  <text x="550" y="470" font-family="Courier New, monospace" font-size="14" fill="#f6ad55" text-anchor="middle">SECTION A-A</text>
  
  <!-- ============== FRONT VIEW ============== -->
  <g transform="translate(200, 250)">
    <!-- Center line vertical -->
    <line x1="0" y1="-180" x2="0" y2="180" stroke="#f6ad55" stroke-width="0.5" stroke-dasharray="12,3,3,3"/>
    
    <!-- Outer housing -->
    <rect x="-60" y="-170" width="120" height="340" fill="none" stroke="#e2e8f0" stroke-width="1.5"/>
    
    <!-- Top cover -->
    <rect x="-60" y="-170" width="120" height="20" fill="none" stroke="#e2e8f0" stroke-width="1.5"/>
    <line x1="-55" y1="-165" x2="55" y2="-165" stroke="#a0aec0" stroke-width="0.5"/>
    
    <!-- Nozzle visible lines -->
    <line x1="-45" y1="-150" x2="-25" y2="-110" stroke="#e2e8f0" stroke-width="1"/>
    <line x1="45" y1="-150" x2="25" y2="-110" stroke="#e2e8f0" stroke-width="1"/>
    <line x1="-25" y1="-110" x2="25" y2="-110" stroke="#e2e8f0" stroke-width="1"/>
    
    <!-- Core outline (hidden) -->
    <rect x="-40" y="-105" width="80" height="180" fill="none" stroke="#a0aec0" stroke-width="0.5" stroke-dasharray="5,3"/>
    
    <!-- Piezo ring -->
    <rect x="-50" y="80" width="100" height="20" fill="none" stroke="#e2e8f0" stroke-width="1"/>
    <line x1="-45" y1="85" x2="45" y2="85" stroke="#a0aec0" stroke-width="0.5"/>
    <line x1="-45" y1="95" x2="45" y2="95" stroke="#a0aec0" stroke-width="0.5"/>
    
    <!-- Electronics bay -->
    <rect x="-55" y="105" width="110" height="50" fill="none" stroke="#e2e8f0" stroke-width="1"/>
    <line x1="-40" y1="115" x2="-10" y2="115" stroke="#a0aec0" stroke-width="0.5"/>
    <rect x="-40" y="115" width="30" height="20" fill="none" stroke="#a0aec0" stroke-width="0.5"/>
    <rect x="10" y="115" width="25" height="20" fill="none" stroke="#a0aec0" stroke-width="0.5"/>
    
    <!-- Mounting flange -->
    <rect x="-70" y="155" width="140" height="15" fill="none" stroke="#e2e8f0" stroke-width="1.5"/>
    <circle cx="-50" cy="162" r="4" fill="none" stroke="#e2e8f0" stroke-width="1"/>
    <circle cx="0" cy="162" r="4" fill="none" stroke="#e2e8f0" stroke-width="1"/>
    <circle cx="50" cy="162" r="4" fill="none" stroke="#e2e8f0" stroke-width="1"/>
    
    <!-- Dimensions -->
    <!-- Width 60mm (housing) -->
    <line x1="-60" y1="190" x2="-60" y2="200" stroke="#e2e8f0" stroke-width="0.5"/>
    <line x1="60" y1="190" x2="60" y2="200" stroke="#e2e8f0" stroke-width="0.5"/>
    <line x1="-60" y1="195" x2="60" y2="195" stroke="#e2e8f0" stroke-width="0.5" marker-start="url(#dimArrowL)" marker-end="url(#dimArrowR)"/>
    <text x="0" y="208" font-family="Courier New, monospace" font-size="9" fill="#e2e8f0" text-anchor="middle">60</text>
    
    <!-- Width 80mm (flange) -->
    <line x1="-70" y1="215" x2="-70" y2="225" stroke="#e2e8f0" stroke-width="0.5"/>
    <line x1="70" y1="215" x2="70" y2="225" stroke="#e2e8f0" stroke-width="0.5"/>
    <line x1="-70" y1="220" x2="70" y2="220" stroke="#e2e8f0" stroke-width="0.5" marker-start="url(#dimArrowL)" marker-end="url(#dimArrowR)"/>
    <text x="0" y="233" font-family="Courier New, monospace" font-size="9" fill="#e2e8f0" text-anchor="middle">80</text>
    
    <!-- Height 85mm -->
    <line x1="80" y1="-170" x2="95" y2="-170" stroke="#e2e8f0" stroke-width="0.5"/>
    <line x1="80" y1="170" x2="95" y2="170" stroke="#e2e8f0" stroke-width="0.5"/>
    <line x1="90" y1="-170" x2="90" y2="170" stroke="#e2e8f0" stroke-width="0.5" marker-start="url(#dimArrowL)" marker-end="url(#dimArrowR)"/>
    <text x="100" y="5" font-family="Courier New, monospace" font-size="9" fill="#e2e8f0" transform="rotate(90, 100, 5)">85</text>
  </g>
  
  <!-- ============== SIDE VIEW ============== -->
  <g transform="translate(550, 250)">
    <!-- Center line vertical -->
    <line x1="0" y1="-180" x2="0" y2="180" stroke="#f6ad55" stroke-width="0.5" stroke-dasharray="12,3,3,3"/>
    
    <!-- Outer housing -->
    <rect x="-60" y="-170" width="120" height="340" fill="none" stroke="#e2e8f0" stroke-width="1.5"/>
    
    <!-- Top cover -->
    <rect x="-60" y="-170" width="120" height="20" fill="none" stroke="#e2e8f0" stroke-width="1.5"/>
    
    <!-- Nozzle (side view - same as front) -->
    <line x1="-45" y1="-150" x2="-25" y2="-110" stroke="#e2e8f0" stroke-width="1"/>
    <line x1="45" y1="-150" x2="25" y2="-110" stroke="#e2e8f0" stroke-width="1"/>
    <line x1="-25" y1="-110" x2="25" y2="-110" stroke="#e2e8f0" stroke-width="1"/>
    
    <!-- Core outline (hidden) -->
    <rect x="-40" y="-105" width="80" height="180" fill="none" stroke="#a0aec0" stroke-width="0.5" stroke-dasharray="5,3"/>
    
    <!-- Piezo ring -->
    <rect x="-50" y="80" width="100" height="20" fill="none" stroke="#e2e8f0" stroke-width="1"/>
    
    <!-- Electronics bay -->
    <rect x="-55" y="105" width="110" height="50" fill="none" stroke="#e2e8f0" stroke-width="1"/>
    
    <!-- Mounting flange -->
    <rect x="-70" y="155" width="140" height="15" fill="none" stroke="#e2e8f0" stroke-width="1.5"/>
    <circle cx="-50" cy="162" r="4" fill="none" stroke="#e2e8f0" stroke-width="1"/>
    <circle cx="0" cy="162" r="4" fill="none" stroke="#e2e8f0" stroke-width="1"/>
    <circle cx="50" cy="162" r="4" fill="none" stroke="#e2e8f0" stroke-width="1"/>
    
    <!-- Section line A-A -->
    <line x1="-90" y1="0" x2="-70" y2="0" stroke="#48bb78" stroke-width="1.5"/>
    <line x1="70" y1="0" x2="90" y2="0" stroke="#48bb78" stroke-width="1.5"/>
    <text x="-95" y="5" font-family="Courier New, monospace" font-size="12" fill="#48bb78">A</text>
    <text x="95" y="5" font-family="Courier New, monospace" font-size="12" fill="#48bb78">A</text>
    <polygon points="-75,5 -75,-5 -85,0" fill="#48bb78"/>
    <polygon points="75,5 75,-5 85,0" fill="#48bb78"/>
    
    <!-- Detail dimensions -->
    <!-- Nozzle aperture 25mm -->
    <line x1="-25" y1="-110" x2="-25" y2="-125" stroke="#e2e8f0" stroke-width="0.5"/>
    <line x1="25" y1="-110" x2="25" y2="-125" stroke="#e2e8f0" stroke-width="0.5"/>
    <line x1="-25" y1="-120" x2="25" y2="-120" stroke="#e2e8f0" stroke-width="0.5" marker-start="url(#dimArrowL)" marker-end="url(#dimArrowR)"/>
    <text x="0" y="-128" font-family="Courier New, monospace" font-size="8" fill="#e2e8f0" text-anchor="middle">Ø25</text>
  </g>
  
  <!-- ============== TOP VIEW ============== -->
  <g transform="translate(900, 200)">
    <!-- Center lines -->
    <line x1="-120" y1="0" x2="120" y2="0" stroke="#f6ad55" stroke-width="0.5" stroke-dasharray="12,3,3,3"/>
    <line x1="0" y1="-120" x2="0" y2="120" stroke="#f6ad55" stroke-width="0.5" stroke-dasharray="12,3,3,3"/>
    
    <!-- Outer housing (circle) -->
    <circle cx="0" cy="0" r="60" fill="none" stroke="#e2e8f0" stroke-width="1.5"/>
    
    <!-- Top cover edge -->
    <circle cx="0" cy="0" r="55" fill="none" stroke="#a0aec0" stroke-width="0.5"/>
    
    <!-- Nozzle aperture -->
    <circle cx="0" cy="0" r="25" fill="none" stroke="#e2e8f0" stroke-width="1.5"/>
    
    <!-- Nozzle cone (hidden lines) -->
    <circle cx="0" cy="0" r="35" fill="none" stroke="#a0aec0" stroke-width="0.5" stroke-dasharray="5,3"/>
    <circle cx="0" cy="0" r="40" fill="none" stroke="#a0aec0" stroke-width="0.5" stroke-dasharray="5,3"/>
    
    <!-- Mounting holes (projected) -->
    <circle cx="-50" cy="0" r="4" fill="none" stroke="#a0aec0" stroke-width="0.5" stroke-dasharray="3,2"/>
    <circle cx="50" cy="0" r="4" fill="none" stroke="#a0aec0" stroke-width="0.5" stroke-dasharray="3,2"/>
    <circle cx="0" cy="-50" r="4" fill="none" stroke="#a0aec0" stroke-width="0.5" stroke-dasharray="3,2"/>
    <circle cx="0" cy="50" r="4" fill="none" stroke="#a0aec0" stroke-width="0.5" stroke-dasharray="3,2"/>
    
    <!-- Flange outline (hidden) -->
    <circle cx="0" cy="0" r="70" fill="none" stroke="#a0aec0" stroke-width="0.5" stroke-dasharray="5,3"/>
    
    <!-- Dimensions -->
    <!-- Outer diameter -->
    <line x1="60" y1="80" x2="60" y2="90" stroke="#e2e8f0" stroke-width="0.5"/>
    <line x1="-60" y1="80" x2="-60" y2="90" stroke="#e2e8f0" stroke-width="0.5"/>
    <line x1="-60" y1="85" x2="60" y2="85" stroke="#e2e8f0" stroke-width="0.5" marker-start="url(#dimArrowL)" marker-end="url(#dimArrowR)"/>
    <text x="0" y="98" font-family="Courier New, monospace" font-size="9" fill="#e2e8f0" text-anchor="middle">Ø60</text>
    
    <!-- Aperture diameter -->
    <line x1="20" y1="-20" x2="35" y2="-35" stroke="#e2e8f0" stroke-width="0.5"/>
    <text x="40" y="-35" font-family="Courier New, monospace" font-size="8" fill="#e2e8f0">Ø25</text>
  </g>
  
  <!-- ============== SECTION A-A ============== -->
  <g transform="translate(550, 650)">
    <!-- Center line -->
    <line x1="0" y1="-130" x2="0" y2="130" stroke="#f6ad55" stroke-width="0.5" stroke-dasharray="12,3,3,3"/>
    
    <!-- Outer housing cut -->
    <path d="M-60,-120 L-60,120 L60,120 L60,-120 Z" fill="none" stroke="#e2e8f0" stroke-width="1.5"/>
    
    <!-- Housing wall hatching (left) -->
    <g stroke="#4a6fa5" stroke-width="0.3">
      <line x1="-60" y1="-120" x2="-50" y2="-110"/>
      <line x1="-60" y1="-110" x2="-50" y2="-100"/>
      <line x1="-60" y1="-100" x2="-50" y2="-90"/>
      <line x1="-60" y1="-90" x2="-50" y2="-80"/>
      <line x1="-60" y1="-80" x2="-50" y2="-70"/>
      <line x1="-60" y1="-70" x2="-50" y2="-60"/>
      <line x1="-60" y1="-60" x2="-50" y2="-50"/>
      <line x1="-60" y1="-50" x2="-50" y2="-40"/>
      <line x1="-60" y1="-40" x2="-50" y2="-30"/>
      <line x1="-60" y1="-30" x2="-50" y2="-20"/>
      <line x1="-60" y1="-20" x2="-50" y2="-10"/>
      <line x1="-60" y1="-10" x2="-50" y2="0"/>
      <line x1="-60" y1="0" x2="-50" y2="10"/>
    </g>
    
    <!-- Housing wall hatching (right) -->
    <g stroke="#4a6fa5" stroke-width="0.3">
      <line x1="50" y1="-120" x2="60" y2="-110"/>
      <line x1="50" y1="-110" x2="60" y2="-100"/>
      <line x1="50" y1="-100" x2="60" y2="-90"/>
      <line x1="50" y1="-90" x2="60" y2="-80"/>
      <line x1="50" y1="-80" x2="60" y2="-70"/>
      <line x1="50" y1="-70" x2="60" y2="-60"/>
      <line x1="50" y1="-60" x2="60" y2="-50"/>
      <line x1="50" y1="-50" x2="60" y2="-40"/>
      <line x1="50" y1="-40" x2="60" y2="-30"/>
      <line x1="50" y1="-30" x2="60" y2="-20"/>
      <line x1="50" y1="-20" x2="60" y2="-10"/>
      <line x1="50" y1="-10" x2="60" y2="0"/>
      <line x1="50" y1="0" x2="60" y2="10"/>
    </g>
    
    <!-- Nozzle section -->
    <path d="M-45,-115 L-25,-90 L25,-90 L45,-115" fill="none" stroke="#e2e8f0" stroke-width="1"/>
    <path d="M-45,-115 L-25,-90" fill="none" stroke="#63b3ed" stroke-width="0.5"/>
    
    <!-- Gradient zone -->
    <rect x="-40" y="-85" width="80" height="60" fill="none" stroke="#e2e8f0" stroke-width="1"/>
    <!-- Layer lines -->
    <g stroke="#4a6fa5" stroke-width="0.3">
      <line x1="-40" y1="-81" x2="40" y2="-81"/>
      <line x1="-40" y1="-77" x2="40" y2="-77"/>
      <line x1="-40" y1="-73" x2="40" y2="-73"/>
      <line x1="-40" y1="-69" x2="40" y2="-69"/>
      <line x1="-40" y1="-65" x2="40" y2="-65"/>
      <line x1="-40" y1="-61" x2="40" y2="-61"/>
      <line x1="-40" y1="-57" x2="40" y2="-57"/>
      <line x1="-40" y1="-53" x2="40" y2="-53"/>
      <line x1="-40" y1="-49" x2="40" y2="-49"/>
      <line x1="-40" y1="-45" x2="40" y2="-45"/>
      <line x1="-40" y1="-41" x2="40" y2="-41"/>
      <line x1="-40" y1="-37" x2="40" y2="-37"/>
      <line x1="-40" y1="-33" x2="40" y2="-33"/>
      <line x1="-40" y1="-29" x2="40" y2="-29"/>
    </g>
    
    <!-- Accumulator -->
    <rect x="-40" y="-25" width="80" height="30" fill="none" stroke="#e2e8f0" stroke-width="1"/>
    <!-- Accumulator hatching -->
    <g stroke="#805ad5" stroke-width="0.3">
      <line x1="-40" y1="-25" x2="-10" y2="5"/>
      <line x1="-30" y1="-25" x2="0" y2="5"/>
      <line x1="-20" y1="-25" x2="10" y2="5"/>
      <line x1="-10" y1="-25" x2="20" y2="5"/>
      <line x1="0" y1="-25" x2="30" y2="5"/>
      <line x1="10" y1="-25" x2="40" y2="5"/>
      <line x1="20" y1="-25" x2="40" y2="-5"/>
      <line x1="30" y1="-25" x2="40" y2="-15"/>
    </g>
    
    <!-- Piezo array -->
    <rect x="-45" y="10" width="90" height="15" fill="none" stroke="#e2e8f0" stroke-width="1"/>
    <!-- Piezo elements -->
    <rect x="-42" y="12" width="10" height="11" fill="none" stroke="#ecc94b" stroke-width="0.5"/>
    <rect x="-30" y="12" width="10" height="11" fill="none" stroke="#ecc94b" stroke-width="0.5"/>
    <rect x="-18" y="12" width="10" height="11" fill="none" stroke="#ecc94b" stroke-width="0.5"/>
    <rect x="-6" y="12" width="10" height="11" fill="none" stroke="#ecc94b" stroke-width="0.5"/>
    <rect x="6" y="12" width="10" height="11" fill="none" stroke="#ecc94b" stroke-width="0.5"/>
    <rect x="18" y="12" width="10" height="11" fill="none" stroke="#ecc94b" stroke-width="0.5"/>
    <rect x="30" y="12" width="10" height="11" fill="none" stroke="#ecc94b" stroke-width="0.5"/>
    
    <!-- Base reflector -->
    <rect x="-40" y="30" width="80" height="12" fill="none" stroke="#e2e8f0" stroke-width="1"/>
    
    <!-- Electronics bay -->
    <rect x="-50" y="45" width="100" height="35" fill="none" stroke="#e2e8f0" stroke-width="1"/>
    <rect x="-45" y="50" width="25" height="15" fill="none" stroke="#a0aec0" stroke-width="0.5"/>
    <rect x="-15" y="50" width="20" height="15" fill="none" stroke="#a0aec0" stroke-width="0.5"/>
    <rect x="10" y="50" width="30" height="15" fill="none" stroke="#a0aec0" stroke-width="0.5"/>
    
    <!-- Flange -->
    <rect x="-65" y="85" width="130" height="12" fill="none" stroke="#e2e8f0" stroke-width="1.5"/>
    
    <!-- Labels -->
    <line x1="50" y1="-70" x2="80" y2="-70" stroke="#a0aec0" stroke-width="0.5"/>
    <text x="85" y="-67" font-family="Courier New, monospace" font-size="7" fill="#a0aec0">GRADIENT</text>
    
    <line x1="50" y1="-10" x2="80" y2="-10" stroke="#a0aec0" stroke-width="0.5"/>
    <text x="85" y="-7" font-family="Courier New, monospace" font-size="7" fill="#805ad5">ACCUMULATOR</text>
    
    <line x1="50" y1="17" x2="80" y2="17" stroke="#a0aec0" stroke-width="0.5"/>
    <text x="85" y="20" font-family="Courier New, monospace" font-size="7" fill="#ecc94b">PIEZO ARRAY</text>
  </g>
  
  <!-- Notes -->
  <rect x="40" y="630" width="200" height="130" fill="#0d2137" stroke="#4a6fa5" stroke-width="1"/>
  <text x="50" y="650" font-family="Courier New, monospace" font-size="10" fill="#f6ad55">NOTES:</text>
  <text x="50" y="670" font-family="Courier New, monospace" font-size="8" fill="#a0aec0">1. ALL DIMENSIONS IN MM</text>
  <text x="50" y="685" font-family="Courier New, monospace" font-size="8" fill="#a0aec0">2. TOLERANCES: ±0.1 UNLESS NOTED</text>
  <text x="50" y="700" font-family="Courier New, monospace" font-size="8" fill="#a0aec0">3. MATERIAL: AL 6061-T6 HOUSING</text>
  <text x="50" y="715" font-family="Courier New, monospace" font-size="8" fill="#a0aec0">4. SURFACE FINISH: Ra 1.6 µm</text>
  <text x="50" y="730" font-family="Courier New, monospace" font-size="8" fill="#a0aec0">5. BREAK ALL SHARP EDGES</text>
  <text x="50" y="745" font-family="Courier New, monospace" font-size="8" fill="#a0aec0">6. REFER TO ATP-MK1-MTL-001</text>
  <text x="50" y="760" font-family="Courier New, monospace" font-size="8" fill="#a0aec0">   FOR CORE SPECIFICATION</text>
  
  <!-- Scale bar -->
  <g transform="translate(40, 810)">
    <rect x="0" y="0" width="100" height="8" fill="none" stroke="#e2e8f0" stroke-width="1"/>
    <rect x="0" y="0" width="20" height="8" fill="#e2e8f0"/>
    <rect x="40" y="0" width="20" height="8" fill="#e2e8f0"/>
    <rect x="80" y="0" width="20" height="8" fill="#e2e8f0"/>
    <text x="0" y="20" font-family="Courier New, monospace" font-size="8" fill="#a0aec0">0</text>
    <text x="50" y="20" font-family="Courier New, monospace" font-size="8" fill="#a0aec0">25</text>
    <text x="100" y="20" font-family="Courier New, monospace" font-size="8" fill="#a0aec0">50mm</text>
  </g>
</svg>
